<svg width="20" height="20" viewBox="0 0 20 20" fill="none" xmlns="http://www.w3.org/2000/svg">
<path d="M15.8947 5.82128C16.2359 6.34681 16.5019 6.92624 16.693 7.55957C16.8977 8.19291 17 8.83972 17 9.5C17 10.4567 16.8158 11.3528 16.4474 12.1883C16.0789 13.0238 15.5741 13.7582 14.9327 14.3915C14.3051 15.0113 13.5682 15.5032 12.7222 15.867C11.8762 16.2309 10.9688 16.4128 10 16.4128V19L6.52047 15.5234L10 12.0872V14.6745C10.7232 14.6745 11.4055 14.5397 12.0468 14.2702C12.6881 14.0007 13.2407 13.6369 13.7047 13.1787C14.1823 12.7071 14.5575 12.1546 14.8304 11.5213C15.1033 10.9014 15.2398 10.2277 15.2398 9.5C15.2398 9.05532 15.1852 8.63085 15.076 8.2266C14.9669 7.82234 14.8168 7.4383 14.6257 7.07447L15.8947 5.82128ZM10 4.32553C9.2768 4.32553 8.59454 4.46028 7.95322 4.72979C7.31189 4.99929 6.75244 5.36986 6.27485 5.84149C5.81092 6.31312 5.4425 6.85887 5.16959 7.47872C4.89669 8.11206 4.76023 8.78582 4.76023 9.5C4.76023 9.94468 4.80799 10.3691 4.90351 10.7734C5.01267 11.1777 5.16959 11.5617 5.37427 11.9255L4.10526 13.1787C3.76413 12.6532 3.49123 12.0805 3.28655 11.4606C3.09552 10.8273 3 10.1738 3 9.5C3 8.55674 3.18421 7.66738 3.55263 6.83192C3.92105 5.98298 4.4191 5.24858 5.04678 4.62872C5.68811 3.99539 6.43177 3.49681 7.27778 3.13298C8.12378 2.76915 9.03119 2.58723 10 2.58723V0L13.4795 3.4766L10 6.91277V4.32553Z" fill="#DCD7BA"/>
</svg>
