<svg width="20" height="20" viewBox="0 0 20 20" fill="none" xmlns="http://www.w3.org/2000/svg">
<g clip-path="url(#clip0_1_4)">
<path d="M10 2C7.87827 2 5.84344 2.84285 4.34315 4.34315C2.84285 5.84344 2 7.87827 2 10C2 12.1217 2.84285 14.1566 4.34315 15.6569C5.84344 17.1571 7.87827 18 10 18C12.1217 18 14.1566 17.1571 15.6569 15.6569C17.1571 14.1566 18 12.1217 18 10C18 7.87827 17.1571 5.84344 15.6569 4.34315C14.1566 2.84285 12.1217 2 10 2ZM10 3.6C11.6974 3.6 13.3253 4.27428 14.5255 5.47452C15.7257 6.67475 16.4 8.30261 16.4 10C16.4 11.6974 15.7257 13.3253 14.5255 14.5255C13.3253 15.7257 11.6974 16.4 10 16.4C8.30261 16.4 6.67475 15.7257 5.47452 14.5255C4.27428 13.3253 3.6 11.6974 3.6 10C3.6 8.30261 4.27428 6.67475 5.47452 5.47452C6.67475 4.27428 8.30261 3.6 10 3.6Z" fill="#DCD7BA"/>
<path d="M10 15C12.7614 15 15 12.7614 15 10C15 7.23858 12.7614 5 10 5C7.23858 5 5 7.23858 5 10C5 12.7614 7.23858 15 10 15Z" fill="#DCD7BA"/>
</g>
<defs>
<clipPath id="clip0_1_4">
<rect width="20" height="20" fill="white"/>
</clipPath>
</defs>
</svg>
