<svg width="20" height="20" viewBox="0 0 20 20" fill="none" xmlns="http://www.w3.org/2000/svg">
<g clip-path="url(#clip0_1_11)">
<path d="M10 2C12.1217 2 14.1566 2.84285 15.6569 4.34315C17.1571 5.84344 18 7.87827 18 10C18 12.1217 17.1571 14.1566 15.6569 15.6569C14.1566 17.1571 12.1217 18 10 18C7.87827 18 5.84344 17.1571 4.34315 15.6569C2.84285 14.1566 2 12.1217 2 10C2 7.87827 2.84285 5.84344 4.34315 4.34315C5.84344 2.84285 7.87827 2 10 2ZM10 3.6C8.30261 3.6 6.67475 4.27428 5.47452 5.47452C4.27428 6.67475 3.6 8.30261 3.6 10C3.6 11.6974 4.27428 13.3253 5.47452 14.5255C6.67475 15.7257 8.30261 16.4 10 16.4C11.6974 16.4 13.3253 15.7257 14.5255 14.5255C15.7257 13.3253 16.4 11.6974 16.4 10C16.4 8.30261 15.7257 6.67475 14.5255 5.47452C13.3253 4.27428 11.6974 3.6 10 3.6ZM10 6.8L12.3781 8.44064L14.8 10L12.3781 11.5594L10 13.2L10.0187 11.6H7.6C7.1568 11.6 6.8 10.8864 6.8 10C6.8 9.1136 7.1568 8.4 7.6 8.4H10.0187L10 6.8Z" fill="#DCD7BA"/>
</g>
<defs>
<clipPath id="clip0_1_11">
<rect width="20" height="20" fill="white"/>
</clipPath>
</defs>
</svg>
