<svg width="20" height="20" viewBox="0 0 20 20" fill="none" xmlns="http://www.w3.org/2000/svg">
<g clip-path="url(#clip0_1_8)">
<path d="M10 2C7.17952 2 4.75 4.26582 4.75 7.07986V9.11111H3.89209C3.39876 9.11111 3 9.55688 3 10.0486V17.1111C3 17.6036 3.39876 18 3.89209 18H16.1079C16.6014 18 17 17.6036 17 17.1111V10.0486C17 9.55688 16.5997 9.07947 16.1079 9.11111H15.25V7.07986C15.25 4.26582 12.82 2 10 2ZM10 3.57986C12.0564 3.57986 13.5 5.03454 13.5 6.93403V8.91319H6.5V6.93403C6.5 5.03429 7.94322 3.57986 10 3.57986ZM9.99658 11.7569C10.4779 11.7571 10.9394 11.9514 11.2798 12.2971C11.6201 12.6429 11.8114 13.1117 11.8115 13.6007C11.8114 14.0896 11.6201 14.5585 11.2798 14.9043C10.9394 15.25 10.4779 15.4443 9.99658 15.4444C9.51528 15.4443 9.05373 15.25 8.71339 14.9043C8.37306 14.5585 8.18179 14.0896 8.18164 13.6007C8.18179 13.1117 8.37306 12.6429 8.71339 12.2971C9.05373 11.9514 9.51528 11.7571 9.99658 11.7569Z" fill="#DCD7BA"/>
</g>
<defs>
<clipPath id="clip0_1_8">
<rect width="20" height="20" fill="white"/>
</clipPath>
</defs>
</svg>
